<svg width="40" height="40" viewBox="0 0 40 40" fill="none" xmlns="http://www.w3.org/2000/svg">
<path d="M0 20C0 8.95431 8.95431 0 20 0C31.0457 0 40 8.95431 40 20C40 31.0457 31.0457 40 20 40C8.95431 40 0 31.0457 0 20Z" fill="#0F6CBD"/>
<path d="M20 12C17.7909 12 16 13.7909 16 16C16 18.2091 17.7909 20 20 20C22.2091 20 24 18.2091 24 16C24 13.7909 22.2091 12 20 12ZM17 16C17 14.3431 18.3431 13 20 13C21.6569 13 23 14.3431 23 16C23 17.6569 21.6569 19 20 19C18.3431 19 17 17.6569 17 16ZM15.0087 21C13.9032 21 13 21.8869 13 23C13 24.6912 13.8328 25.9663 15.135 26.7966C16.417 27.614 18.1453 28 20 28C21.8547 28 23.583 27.614 24.865 26.7966C26.1672 25.9663 27 24.6912 27 23C27 21.8956 26.1045 21 25 21L15.0087 21ZM14 23C14 22.4467 14.4479 22 15.0087 22L25 22C25.5522 22 26 22.4478 26 23C26 24.3088 25.3777 25.2837 24.3274 25.9534C23.2568 26.636 21.7351 27 20 27C18.2649 27 16.7432 26.636 15.6726 25.9534C14.6223 25.2837 14 24.3088 14 23Z" fill="white"/>
</svg>
