<svg width="728" height="424" viewBox="0 0 728 424" fill="none" xmlns="http://www.w3.org/2000/svg">
<g filter="url(#filter0_dd_50_60446)">
<rect x="64" y="32" width="600" height="296" rx="8" fill="white" shape-rendering="crispEdges"/>
<path d="M90.86 64.08H102.6V66.2H90.86V64.08ZM88.82 70.74H105.58V72.86H88.82V70.74ZM101 64.08H103.62V65.56C103.62 67.16 103.62 68.88 103.06 71.28L100.42 71.24C101 68.84 101 67.14 101 65.56V64.08ZM90.78 74.8H103.54V81.58H90.78V74.8ZM100.92 76.86H93.38V79.48H100.92V76.86ZM111.718 66.68H113.898V67.34C113.898 70.6 112.198 73.5 108.598 74.5L107.358 72.44C110.398 71.56 111.718 69.44 111.718 67.34V66.68ZM112.218 66.68H114.378V67.34C114.378 69.3 115.738 71.32 118.758 72.12L117.538 74.18C113.938 73.22 112.218 70.46 112.218 67.34V66.68ZM107.978 65.18H118.098V67.26H107.978V65.18ZM111.718 63.2H114.378V66.08H111.718V63.2ZM119.918 63.26H122.598V74.62H119.918V63.26ZM109.958 75.4H122.598V81.78H119.918V77.52H109.958V75.4ZM130.677 64.54C133.437 64.54 135.457 67.1 135.457 71.14C135.457 75.22 133.437 77.78 130.677 77.78C127.897 77.78 125.897 75.22 125.897 71.14C125.897 67.1 127.897 64.54 130.677 64.54ZM130.677 66.96C129.337 66.96 128.437 68.42 128.437 71.14C128.437 73.9 129.337 75.38 130.677 75.38C132.037 75.38 132.917 73.9 132.917 71.14C132.917 68.42 132.037 66.96 130.677 66.96ZM138.497 63.24H141.137V81.82H138.497V63.24ZM134.677 69.92H139.617V72.06H134.677V69.92ZM156.543 75.12H159.183V81.8H156.543V75.12ZM149.523 74.34H166.263V76.5H149.523V74.34ZM156.523 66.58H158.863V67.02C158.863 70.12 156.183 72.82 151.283 73.4L150.363 71.32C154.543 70.84 156.523 68.74 156.523 67.02V66.58ZM156.863 66.58H159.203V67.02C159.203 68.7 161.203 70.84 165.363 71.32L164.423 73.4C159.543 72.84 156.863 70.04 156.863 67.02V66.58ZM151.023 65.38H164.743V67.48H151.023V65.38ZM156.543 63.3H159.183V66.1H156.543V63.3ZM179.742 63.24H182.422V81.76H179.742V63.24ZM181.722 70.32H184.982V72.5H181.722V70.32ZM174.882 65.16H177.482C177.482 70.72 175.362 75.48 169.202 78.58L167.722 76.56C172.582 74.04 174.882 70.64 174.882 65.62V65.16ZM168.742 65.16H176.242V67.3H168.742V65.16Z" fill="#242424"/>
<path d="M622.089 66.2157L622.146 66.1464C622.32 65.9729 622.589 65.9536 622.784 66.0886L622.854 66.1464L628 71.293L633.146 66.1464C633.32 65.9729 633.589 65.9536 633.784 66.0886L633.854 66.1464C634.027 66.32 634.046 66.5894 633.911 66.7843L633.854 66.8536L628.707 72L633.854 77.1464C634.027 77.32 634.046 77.5894 633.911 77.7843L633.854 77.8536C633.68 78.0271 633.411 78.0464 633.216 77.9114L633.146 77.8536L628 72.707L622.854 77.8536C622.68 78.0271 622.411 78.0464 622.216 77.9114L622.146 77.8536C621.973 77.68 621.954 77.4106 622.089 77.2157L622.146 77.1464L627.293 72L622.146 66.8536C621.973 66.68 621.954 66.4106 622.089 66.2157L622.146 66.1464L622.089 66.2157Z" fill="#424242"/>
<path d="M92.156 117.094H100.304V118.046H92.156V117.094ZM90.7 121.756H102.166V122.708H90.7V121.756ZM99.548 117.094H100.682V118.032C100.682 119.11 100.682 120.342 100.262 122.092L99.128 122.036C99.548 120.3 99.548 119.082 99.548 118.032V117.094ZM92.1 124.43H100.724V128.924H92.1V124.43ZM99.59 125.354H93.234V127.986H99.59V125.354ZM107.009 118.676H107.961V119.208C107.961 121.448 106.519 123.296 104.391 124.01L103.817 123.1C105.707 122.484 107.009 120.944 107.009 119.208V118.676ZM107.205 118.676H108.157V119.208C108.157 120.832 109.487 122.288 111.363 122.862L110.817 123.772C108.675 123.1 107.205 121.35 107.205 119.208V118.676ZM104.125 117.962H111.013V118.9H104.125V117.962ZM107.009 116.38H108.157V118.452H107.009V116.38ZM112.777 116.436H113.953V124.234H112.777V116.436ZM105.497 124.878H113.953V129.092H112.777V125.816H105.497V124.878ZM119.832 117.402C121.666 117.402 122.982 119.124 122.982 121.812C122.982 124.514 121.666 126.236 119.832 126.236C117.984 126.236 116.682 124.514 116.682 121.812C116.682 119.124 117.984 117.402 119.832 117.402ZM119.832 118.452C118.614 118.452 117.788 119.768 117.788 121.812C117.788 123.87 118.614 125.214 119.832 125.214C121.05 125.214 121.876 123.87 121.876 121.812C121.876 119.768 121.05 118.452 119.832 118.452ZM125.726 116.422H126.874V129.106H125.726V116.422ZM122.604 121.252H126.23V122.204H122.604V121.252Z" fill="#242424"/>
<g clip-path="url(#clip0_50_60446)">
<rect x="88.5" y="140.5" width="551" height="31" rx="3.5" fill="white"/>
<rect x="100" y="145" width="1" height="20" fill="#242424"/>
<path d="M103.156 150.094H111.304V151.046H103.156V150.094ZM101.7 154.756H113.166V155.708H101.7V154.756ZM110.548 150.094H111.682V151.032C111.682 152.11 111.682 153.342 111.262 155.092L110.128 155.036C110.548 153.3 110.548 152.082 110.548 151.032V150.094ZM103.1 157.43H111.724V161.924H103.1V157.43ZM110.59 158.354H104.234V160.986H110.59V158.354ZM118.009 151.676H118.961V152.208C118.961 154.448 117.519 156.296 115.391 157.01L114.817 156.1C116.707 155.484 118.009 153.944 118.009 152.208V151.676ZM118.205 151.676H119.157V152.208C119.157 153.832 120.487 155.288 122.363 155.862L121.817 156.772C119.675 156.1 118.205 154.35 118.205 152.208V151.676ZM115.125 150.962H122.013V151.9H115.125V150.962ZM118.009 149.38H119.157V151.452H118.009V149.38ZM123.777 149.436H124.953V157.234H123.777V149.436ZM116.497 157.878H124.953V162.092H123.777V158.816H116.497V157.878ZM130.832 150.402C132.666 150.402 133.982 152.124 133.982 154.812C133.982 157.514 132.666 159.236 130.832 159.236C128.984 159.236 127.682 157.514 127.682 154.812C127.682 152.124 128.984 150.402 130.832 150.402ZM130.832 151.452C129.614 151.452 128.788 152.768 128.788 154.812C128.788 156.87 129.614 158.214 130.832 158.214C132.05 158.214 132.876 156.87 132.876 154.812C132.876 152.768 132.05 151.452 130.832 151.452ZM136.726 149.422H137.874V162.106H136.726V149.422ZM133.604 154.252H137.23V155.204H133.604V154.252ZM140.323 155.316H151.803V156.198H140.323V155.316ZM141.681 157.22H150.361V159.922H142.871V161.406H141.723V159.124H149.227V158.046H141.681V157.22ZM141.723 161.098H150.767V161.938H141.723V161.098ZM141.779 149.8H150.319V152.432H142.955V153.804H141.807V151.648H149.185V150.626H141.779V149.8ZM141.807 153.524H150.557V154.364H141.807V153.524ZM166.255 149.436H167.431V156.226H166.255V149.436ZM159.269 156.856H160.417V158.396H166.283V156.856H167.431V161.924H159.269V156.856ZM160.417 159.32V160.986H166.283V159.32H160.417ZM160.641 150.038C162.559 150.038 163.931 151.228 163.931 152.95C163.931 154.686 162.559 155.876 160.641 155.876C158.723 155.876 157.337 154.686 157.337 152.95C157.337 151.228 158.723 150.038 160.641 150.038ZM160.641 151.004C159.381 151.004 158.471 151.802 158.471 152.95C158.471 154.098 159.381 154.896 160.641 154.896C161.901 154.896 162.811 154.098 162.811 152.95C162.811 151.802 161.901 151.004 160.641 151.004ZM170.454 155.708H171.364C173.856 155.708 175.088 155.666 176.6 155.4L176.726 156.338C175.158 156.618 173.898 156.66 171.364 156.66H170.454V155.708ZM170.426 150.192H175.886V153.79H171.602V156.282H170.454V152.88H174.738V151.144H170.426V150.192ZM179.176 149.45H180.338V157.22H179.176V149.45ZM176.726 151.312H179.442V152.264H176.726V151.312ZM176.726 153.93H179.442V154.882H176.726V153.93ZM171.868 157.906H180.338V162.12H179.176V158.858H171.868V157.906ZM191.383 149.436H192.545V162.092H191.383V149.436ZM192.265 154.63H194.617V155.61H192.265V154.63ZM182.745 151.452H190.207V152.404H182.745V151.452ZM186.525 153.454C188.317 153.454 189.605 154.658 189.605 156.366C189.605 158.074 188.317 159.278 186.525 159.278C184.747 159.278 183.445 158.074 183.445 156.366C183.445 154.658 184.747 153.454 186.525 153.454ZM186.525 154.42C185.377 154.42 184.551 155.218 184.551 156.366C184.551 157.5 185.377 158.312 186.525 158.312C187.673 158.312 188.499 157.5 188.499 156.366C188.499 155.218 187.673 154.42 186.525 154.42ZM185.923 149.59H187.085V151.886H185.923V149.59ZM200.678 153.958H203.1V154.924H200.678V153.958ZM198.312 150.626H199.222V153.034C199.222 155.68 198.116 158.242 196.268 159.376L195.54 158.494C197.276 157.472 198.312 155.204 198.312 153.034V150.626ZM198.536 150.626H199.432V152.992C199.432 155.022 200.384 157.178 202.05 158.186L201.378 159.096C199.558 157.976 198.536 155.456 198.536 152.992V150.626ZM205.326 149.436H206.446V162.092H205.326V149.436ZM202.764 149.702H203.856V161.462H202.764V149.702ZM211.373 155.946H212.521V159.74H211.373V155.946ZM216.049 155.946H217.211V159.74H216.049V155.946ZM208.573 159.516H220.039V160.482H208.573V159.516ZM214.285 150.234C216.959 150.234 218.877 151.508 218.877 153.496C218.877 155.47 216.959 156.744 214.285 156.744C211.597 156.744 209.679 155.47 209.679 153.496C209.679 151.508 211.597 150.234 214.285 150.234ZM214.285 151.158C212.255 151.158 210.799 152.082 210.799 153.496C210.799 154.896 212.255 155.82 214.285 155.82C216.315 155.82 217.757 154.896 217.757 153.496C217.757 152.082 216.315 151.158 214.285 151.158ZM222.276 161.15C222.067 161.15 221.887 161.075 221.736 160.925C221.59 160.774 221.518 160.594 221.518 160.385C221.518 160.175 221.59 159.995 221.736 159.845C221.887 159.69 222.067 159.612 222.276 159.612C222.491 159.612 222.673 159.69 222.823 159.845C222.974 159.995 223.049 160.175 223.049 160.385C223.049 160.594 222.974 160.774 222.823 160.925C222.673 161.075 222.491 161.15 222.276 161.15Z" fill="#707070"/>
<rect x="88.5" y="140.5" width="551" height="31" rx="3.5" stroke="#D1D1D1"/>
<path d="M88 170H640C640 171.105 639.105 172 638 172H90C88.8954 172 88 171.105 88 170Z" fill="#0F6CBD"/>
</g>
<path d="M92.156 193.094H100.304V194.046H92.156V193.094ZM90.7 197.756H102.166V198.708H90.7V197.756ZM99.548 193.094H100.682V194.032C100.682 195.11 100.682 196.342 100.262 198.092L99.128 198.036C99.548 196.3 99.548 195.082 99.548 194.032V193.094ZM92.1 200.43H100.724V204.924H92.1V200.43ZM99.59 201.354H93.234V203.986H99.59V201.354ZM107.009 194.676H107.961V195.208C107.961 197.448 106.519 199.296 104.391 200.01L103.817 199.1C105.707 198.484 107.009 196.944 107.009 195.208V194.676ZM107.205 194.676H108.157V195.208C108.157 196.832 109.487 198.288 111.363 198.862L110.817 199.772C108.675 199.1 107.205 197.35 107.205 195.208V194.676ZM104.125 193.962H111.013V194.9H104.125V193.962ZM107.009 192.38H108.157V194.452H107.009V192.38ZM112.777 192.436H113.953V200.234H112.777V192.436ZM105.497 200.878H113.953V205.092H112.777V201.816H105.497V200.878ZM119.832 193.402C121.666 193.402 122.982 195.124 122.982 197.812C122.982 200.514 121.666 202.236 119.832 202.236C117.984 202.236 116.682 200.514 116.682 197.812C116.682 195.124 117.984 193.402 119.832 193.402ZM119.832 194.452C118.614 194.452 117.788 195.768 117.788 197.812C117.788 199.87 118.614 201.214 119.832 201.214C121.05 201.214 121.876 199.87 121.876 197.812C121.876 195.768 121.05 194.452 119.832 194.452ZM125.726 192.422H126.874V205.106H125.726V192.422ZM122.604 197.252H126.23V198.204H122.604V197.252ZM136.105 200.262H137.295V205.092H136.105V200.262ZM140.459 200.262H141.649V205.092H140.459V200.262ZM133.165 199.632H144.645V200.598H133.165V199.632ZM138.877 192.94C141.523 192.94 143.301 194.004 143.301 195.698C143.301 197.378 141.523 198.456 138.877 198.456C136.245 198.456 134.453 197.378 134.453 195.698C134.453 194.004 136.245 192.94 138.877 192.94ZM138.877 193.878C136.945 193.878 135.629 194.592 135.629 195.698C135.629 196.804 136.945 197.518 138.877 197.518C140.809 197.518 142.111 196.804 142.111 195.698C142.111 194.592 140.809 193.878 138.877 193.878ZM153.169 195.474H155.745V196.426H153.169V195.474ZM153.155 197.938H155.731V198.89H153.155V197.938ZM146.071 193.822H153.155V194.76H146.071V193.822ZM149.655 195.418C151.349 195.418 152.511 196.342 152.511 197.756C152.511 199.17 151.349 200.108 149.655 200.108C147.961 200.108 146.785 199.17 146.785 197.756C146.785 196.342 147.961 195.418 149.655 195.418ZM149.655 196.314C148.591 196.314 147.877 196.874 147.877 197.756C147.877 198.638 148.591 199.212 149.655 199.212C150.705 199.212 151.433 198.638 151.433 197.756C151.433 196.874 150.705 196.314 149.655 196.314ZM149.081 192.324H150.243V194.48H149.081V192.324ZM155.297 192.436H156.459V200.612H155.297V192.436ZM152.315 200.738C154.933 200.738 156.529 201.536 156.529 202.908C156.529 204.28 154.933 205.064 152.315 205.064C149.683 205.064 148.101 204.28 148.101 202.908C148.101 201.536 149.683 200.738 152.315 200.738ZM152.315 201.662C150.453 201.662 149.305 202.096 149.305 202.908C149.305 203.706 150.453 204.168 152.315 204.168C154.177 204.168 155.325 203.706 155.325 202.908C155.325 202.096 154.177 201.662 152.315 201.662Z" fill="#242424"/>
<g clip-path="url(#clip1_50_60446)">
<rect x="88.5" y="216.5" width="551" height="31" rx="3.5" fill="white"/>
<path d="M103.626 233.262H104.816V238.092H103.626V233.262ZM107.98 233.262H109.17V238.092H107.98V233.262ZM100.686 232.632H112.166V233.598H100.686V232.632ZM106.398 225.94C109.044 225.94 110.822 227.004 110.822 228.698C110.822 230.378 109.044 231.456 106.398 231.456C103.766 231.456 101.974 230.378 101.974 228.698C101.974 227.004 103.766 225.94 106.398 225.94ZM106.398 226.878C104.466 226.878 103.15 227.592 103.15 228.698C103.15 229.804 104.466 230.518 106.398 230.518C108.33 230.518 109.632 229.804 109.632 228.698C109.632 227.592 108.33 226.878 106.398 226.878ZM120.691 228.474H123.267V229.426H120.691V228.474ZM120.677 230.938H123.253V231.89H120.677V230.938ZM113.593 226.822H120.677V227.76H113.593V226.822ZM117.177 228.418C118.871 228.418 120.033 229.342 120.033 230.756C120.033 232.17 118.871 233.108 117.177 233.108C115.483 233.108 114.307 232.17 114.307 230.756C114.307 229.342 115.483 228.418 117.177 228.418ZM117.177 229.314C116.113 229.314 115.399 229.874 115.399 230.756C115.399 231.638 116.113 232.212 117.177 232.212C118.227 232.212 118.955 231.638 118.955 230.756C118.955 229.874 118.227 229.314 117.177 229.314ZM116.603 225.324H117.765V227.48H116.603V225.324ZM122.819 225.436H123.981V233.612H122.819V225.436ZM119.837 233.738C122.455 233.738 124.051 234.536 124.051 235.908C124.051 237.28 122.455 238.064 119.837 238.064C117.205 238.064 115.623 237.28 115.623 235.908C115.623 234.536 117.205 233.738 119.837 233.738ZM119.837 234.662C117.975 234.662 116.827 235.096 116.827 235.908C116.827 236.706 117.975 237.168 119.837 237.168C121.699 237.168 122.847 236.706 122.847 235.908C122.847 235.096 121.699 234.662 119.837 234.662ZM132.17 225.646C134.956 225.646 136.622 226.43 136.622 227.844C136.622 229.258 134.956 230.042 132.17 230.042C129.37 230.042 127.718 229.258 127.718 227.844C127.718 226.43 129.37 225.646 132.17 225.646ZM132.17 226.528C130.098 226.528 128.908 227.004 128.908 227.844C128.908 228.684 130.098 229.16 132.17 229.16C134.228 229.16 135.418 228.684 135.418 227.844C135.418 227.004 134.228 226.528 132.17 226.528ZM126.444 230.882H137.882V231.82H126.444V230.882ZM127.83 232.898H136.426V235.754H129.006V237.294H127.858V234.914H135.278V233.794H127.83V232.898ZM127.858 237.042H136.804V237.952H127.858V237.042ZM149.661 228.418H152.853V229.384H149.661V228.418ZM146.343 226.206H147.281V227.76C147.281 230.21 145.909 232.254 143.795 233.108L143.193 232.184C145.069 231.484 146.343 229.692 146.343 227.76V226.206ZM146.567 226.206H147.505V227.802C147.505 229.566 148.737 231.232 150.571 231.904L149.941 232.8C147.925 232.016 146.567 230.056 146.567 227.802V226.206ZM152.419 225.45H153.581V234.914H152.419V225.45ZM145.447 236.86H153.889V237.812H145.447V236.86ZM145.447 233.864H146.609V237.308H145.447V233.864ZM156.589 231.484H157.401C159.389 231.484 160.565 231.442 161.979 231.162L162.091 232.114C160.635 232.394 159.431 232.45 157.401 232.45H156.589V231.484ZM156.589 226.36H161.489V227.312H157.709V232.002H156.589V226.36ZM157.359 228.88H161.335V229.79H157.359V228.88ZM165.605 225.436H166.711V233.108H165.605V225.436ZM163.561 228.74H165.955V229.692H163.561V228.74ZM162.819 225.674H163.911V233.038H162.819V225.674ZM158.227 233.78H166.711V238.092H165.563V234.732H158.227V233.78ZM177.504 225.436H178.666V238.092H177.504V225.436ZM178.386 230.63H180.738V231.61H178.386V230.63ZM168.866 227.452H176.328V228.404H168.866V227.452ZM172.646 229.454C174.438 229.454 175.726 230.658 175.726 232.366C175.726 234.074 174.438 235.278 172.646 235.278C170.868 235.278 169.566 234.074 169.566 232.366C169.566 230.658 170.868 229.454 172.646 229.454ZM172.646 230.42C171.498 230.42 170.672 231.218 170.672 232.366C170.672 233.5 171.498 234.312 172.646 234.312C173.794 234.312 174.62 233.5 174.62 232.366C174.62 231.218 173.794 230.42 172.646 230.42ZM172.044 225.59H173.206V227.886H172.044V225.59ZM186.799 229.958H189.221V230.924H186.799V229.958ZM184.433 226.626H185.343V229.034C185.343 231.68 184.237 234.242 182.389 235.376L181.661 234.494C183.397 233.472 184.433 231.204 184.433 229.034V226.626ZM184.657 226.626H185.553V228.992C185.553 231.022 186.505 233.178 188.171 234.186L187.499 235.096C185.679 233.976 184.657 231.456 184.657 228.992V226.626ZM191.447 225.436H192.567V238.092H191.447V225.436ZM188.885 225.702H189.977V237.462H188.885V225.702ZM197.494 231.946H198.642V235.74H197.494V231.946ZM202.17 231.946H203.332V235.74H202.17V231.946ZM194.694 235.516H206.16V236.482H194.694V235.516ZM200.406 226.234C203.08 226.234 204.998 227.508 204.998 229.496C204.998 231.47 203.08 232.744 200.406 232.744C197.718 232.744 195.8 231.47 195.8 229.496C195.8 227.508 197.718 226.234 200.406 226.234ZM200.406 227.158C198.376 227.158 196.92 228.082 196.92 229.496C196.92 230.896 198.376 231.82 200.406 231.82C202.436 231.82 203.878 230.896 203.878 229.496C203.878 228.082 202.436 227.158 200.406 227.158ZM208.397 237.15C208.188 237.15 208.008 237.075 207.857 236.925C207.712 236.774 207.639 236.594 207.639 236.385C207.639 236.175 207.712 235.995 207.857 235.845C208.008 235.69 208.188 235.612 208.397 235.612C208.612 235.612 208.794 235.69 208.944 235.845C209.095 235.995 209.17 236.175 209.17 236.385C209.17 236.594 209.095 236.774 208.944 236.925C208.794 237.075 208.612 237.15 208.397 237.15Z" fill="#707070"/>
<path d="M625.853 229.646C626.048 229.841 626.049 230.157 625.854 230.353L620.389 235.837C620.174 236.053 619.825 236.053 619.61 235.837L614.145 230.353C613.95 230.157 613.95 229.841 614.146 229.646C614.342 229.451 614.658 229.451 614.853 229.647L619.999 234.812L625.146 229.647C625.341 229.451 625.657 229.451 625.853 229.646Z" fill="#616161"/>
<rect x="88.5" y="216.5" width="551" height="31" rx="3.5" stroke="#D1D1D1"/>
<path d="M88 247H640V248H88V247Z" fill="#616161"/>
</g>
<rect x="532" y="272" width="50" height="32" rx="4" fill="#0F6CBD"/>
<path d="M544.574 287.204H556.306V288.716H544.574V287.204ZM545.988 284.838H554.976V286.308H545.988V284.838ZM545.988 281.632H554.906V283.116H547.836V285.566H545.988V281.632ZM550.398 289.486C553.198 289.486 554.892 290.34 554.892 291.866C554.892 293.392 553.198 294.246 550.398 294.246C547.598 294.246 545.89 293.392 545.89 291.866C545.89 290.34 547.598 289.486 550.398 289.486ZM550.398 290.886C548.662 290.886 547.78 291.208 547.78 291.866C547.78 292.538 548.662 292.832 550.398 292.832C552.134 292.832 553.016 292.538 553.016 291.866C553.016 291.208 552.134 290.886 550.398 290.886ZM557.439 288.226H569.185V289.71H557.439V288.226ZM558.881 281.534H567.757V285.048H560.743V286.448H558.895V283.732H565.923V282.948H558.881V281.534ZM558.895 285.888H568.009V287.302H558.895V285.888ZM562.381 286.574H564.243V289.038H562.381V286.574ZM558.741 290.438H567.841V294.204H565.979V291.908H558.741V290.438Z" fill="white"/>
<rect x="590.5" y="272.5" width="49" height="31" rx="3.5" fill="white"/>
<path d="M605.906 283.746H607.404V283.9C607.404 285.818 606.256 287.386 603.764 287.89L603.022 286.448C605.024 286.084 605.906 285.02 605.906 283.9V283.746ZM606.284 283.746H607.782V283.9C607.782 284.95 608.65 285.916 610.61 286.266L609.882 287.694C607.432 287.232 606.284 285.734 606.284 283.9V283.746ZM603.372 282.57H610.302V283.998H603.372V282.57ZM605.906 281.31H607.782V283.592H605.906V281.31ZM605.892 288.646H607.754V293.854H605.892V288.646ZM611.562 281.282H613.41V294.246H611.562V281.282ZM602.826 289.948L602.602 288.436C604.954 288.436 608.104 288.422 610.82 288.058L610.946 289.402C608.146 289.906 605.136 289.948 602.826 289.948ZM615.453 291.208H627.185V292.734H615.453V291.208ZM620.325 288.324H622.173V291.614H620.325V288.324ZM620.255 281.996H621.879V282.934C621.879 285.692 619.877 288.128 616.489 288.744L615.719 287.19C618.673 286.714 620.255 284.726 620.255 282.934V281.996ZM620.619 281.996H622.243V282.934C622.243 284.768 623.825 286.714 626.793 287.19L626.023 288.744C622.621 288.114 620.619 285.734 620.619 282.934V281.996Z" fill="#242424"/>
<rect x="590.5" y="272.5" width="49" height="31" rx="3.5" stroke="#D1D1D1"/>
</g>
<defs>
<filter id="filter0_dd_50_60446" x="0" y="0" width="728" height="424" filterUnits="userSpaceOnUse" color-interpolation-filters="sRGB">
<feFlood flood-opacity="0" result="BackgroundImageFix"/>
<feColorMatrix in="SourceAlpha" type="matrix" values="0 0 0 0 0 0 0 0 0 0 0 0 0 0 0 0 0 0 127 0" result="hardAlpha"/>
<feOffset/>
<feGaussianBlur stdDeviation="4"/>
<feComposite in2="hardAlpha" operator="out"/>
<feColorMatrix type="matrix" values="0 0 0 0 0 0 0 0 0 0 0 0 0 0 0 0 0 0 0.2 0"/>
<feBlend mode="normal" in2="BackgroundImageFix" result="effect1_dropShadow_50_60446"/>
<feColorMatrix in="SourceAlpha" type="matrix" values="0 0 0 0 0 0 0 0 0 0 0 0 0 0 0 0 0 0 127 0" result="hardAlpha"/>
<feOffset dy="32"/>
<feGaussianBlur stdDeviation="32"/>
<feComposite in2="hardAlpha" operator="out"/>
<feColorMatrix type="matrix" values="0 0 0 0 0 0 0 0 0 0 0 0 0 0 0 0 0 0 0.24 0"/>
<feBlend mode="normal" in2="effect1_dropShadow_50_60446" result="effect2_dropShadow_50_60446"/>
<feBlend mode="normal" in="SourceGraphic" in2="effect2_dropShadow_50_60446" result="shape"/>
</filter>
<clipPath id="clip0_50_60446">
<rect x="88" y="140" width="552" height="32" rx="4" fill="white"/>
</clipPath>
<clipPath id="clip1_50_60446">
<rect x="88" y="216" width="552" height="32" rx="4" fill="white"/>
</clipPath>
</defs>
</svg>
