<svg width="24" height="24" viewBox="0 0 24 24" fill="none" xmlns="http://www.w3.org/2000/svg">
<path d="M3.83885 5.85751C6.77986 1.94191 12.8685 0.802522 17.2028 3.49739C21.4826 6.15841 23.0566 11.2745 21.3037 16.0748C19.6485 20.6073 15.2873 22.4032 12.144 20.1232C10.9666 19.2691 10.5101 18.1984 10.2895 16.4593L10.1841 15.4714L10.1387 15.074C10.016 14.1399 9.82762 13.7214 9.43435 13.5022C8.89876 13.2037 8.54213 13.1967 7.83887 13.4693L7.48775 13.6149L7.30902 13.6928C6.29524 14.1331 5.62085 14.2878 4.76786 14.1091L4.56761 14.0619L4.40407 14.0153C1.61511 13.1511 1.20202 9.36815 3.83885 5.85751ZM16.7669 10.5796C16.9456 11.2464 17.631 11.6422 18.2978 11.4635C18.9646 11.2848 19.3604 10.5994 19.1817 9.93254C19.003 9.26571 18.3176 8.86998 17.6508 9.04866C16.9839 9.22734 16.5882 9.91276 16.7669 10.5796ZM17.2615 14.0683C17.4402 14.7351 18.1256 15.1308 18.7924 14.9521C19.4592 14.7735 19.855 14.088 19.6763 13.4212C19.4976 12.7544 18.8122 12.3586 18.1454 12.5373C17.4785 12.716 17.0828 13.4014 17.2615 14.0683ZM14.7884 7.57691C14.9671 8.24374 15.6525 8.63947 16.3193 8.46079C16.9861 8.28211 17.3819 7.59669 17.2032 6.92986C17.0245 6.26303 16.3391 5.8673 15.6723 6.04598C15.0054 6.22465 14.6097 6.91008 14.7884 7.57691ZM14.7599 16.5753C14.9386 17.2421 15.624 17.6379 16.2908 17.4592C16.9577 17.2805 17.3534 16.5951 17.1747 15.9282C16.996 15.2614 16.3106 14.8657 15.6438 15.0444C14.9769 15.223 14.5812 15.9085 14.7599 16.5753ZM11.263 6.60531C11.4416 7.27215 12.1271 7.66787 12.7939 7.4892C13.4607 7.31052 13.8565 6.6251 13.6778 5.95827C13.4991 5.29143 12.8137 4.89571 12.1469 5.07438C11.48 5.25306 11.0843 5.93848 11.263 6.60531Z" fill="#242424"/>
</svg>
