<svg width="20" height="20" viewBox="0 0 20 20" fill="none" xmlns="http://www.w3.org/2000/svg">
<path d="M6 8.99999C6 8.72385 6.22386 8.49999 6.5 8.49999H8.5V6.5C8.5 6.22386 8.72386 6 9 6C9.27614 6 9.5 6.22386 9.5 6.5V8.49999H11.5C11.7761 8.49999 12 8.72385 12 8.99999C12 9.27614 11.7761 9.49999 11.5 9.49999H9.5V11.5C9.5 11.7761 9.27614 12 9 12C8.72386 12 8.5 11.7761 8.5 11.5V9.49999H6.5C6.22386 9.49999 6 9.27614 6 8.99999ZM6 4C4.89543 4 4 4.89543 4 6V12C4 13.1046 4.89543 14 6 14H12C13.1046 14 14 13.1046 14 12V6C14 4.89543 13.1046 4 12 4H6ZM5 6C5 5.44771 5.44771 5 6 5H12C12.5523 5 13 5.44771 13 6V12C13 12.5523 12.5523 13 12 13H6C5.44771 13 5 12.5523 5 12V6ZM12.5 15C13.8807 15 15 13.8807 15 12.5V5.26758C15.5978 5.61339 16 6.25973 16 7.00001V12.5C16 14.433 14.433 16 12.5 16H7.00001C6.25973 16 5.61339 15.5978 5.26758 15H12.5Z" fill="#107C10"/>
</svg>
