<svg width="21" height="20" viewBox="0 0 21 20" fill="none" xmlns="http://www.w3.org/2000/svg">
<path d="M10.0617 3.26181C10.2508 2.91271 10.7519 2.91273 10.941 3.26186L17.4415 15.2628C17.622 15.5959 17.3807 16.0009 17.0019 16.0009H3.99917C3.62027 16.0009 3.37905 15.5959 3.55955 15.2627L10.0617 3.26181ZM11.8203 2.78557C11.2529 1.73821 9.7499 1.73813 9.18246 2.78544L2.68031 14.7864C2.1388 15.7858 2.86245 17.0009 3.99917 17.0009H17.0019C18.1385 17.0009 18.8622 15.786 18.3208 14.7865L11.8203 2.78557ZM10.9997 7.50023C10.9997 7.22409 10.7759 7.00023 10.4997 7.00023C10.2236 7.00023 9.99972 7.22409 9.99972 7.50023V11.5002C9.99972 11.7764 10.2236 12.0002 10.4997 12.0002C10.7759 12.0002 10.9997 11.7764 10.9997 11.5002V7.50023ZM11.2497 13.7502C11.2497 14.1644 10.9139 14.5002 10.4997 14.5002C10.0855 14.5002 9.74972 14.1644 9.74972 13.7502C9.74972 13.336 10.0855 13.0002 10.4997 13.0002C10.9139 13.0002 11.2497 13.336 11.2497 13.7502Z" fill="#242424"/>
</svg>
