<svg width="25" height="24" viewBox="0 0 25 24" fill="none" xmlns="http://www.w3.org/2000/svg">
<path d="M12.5125 2.25C13.2465 2.25846 13.9776 2.34326 14.694 2.50304C15.0067 2.57279 15.2406 2.83351 15.2761 3.15196L15.4463 4.67881C15.5234 5.37986 16.1153 5.91084 16.8209 5.91158C17.0106 5.91188 17.1982 5.87238 17.3735 5.79483L18.7741 5.17956C19.0654 5.05159 19.4058 5.12136 19.6232 5.35362C20.6354 6.43464 21.3892 7.73115 21.828 9.14558C21.9226 9.45058 21.8137 9.78203 21.5567 9.9715L20.3152 10.8866C19.961 11.1468 19.7519 11.56 19.7519 11.9995C19.7519 12.4389 19.961 12.8521 20.316 13.1129L21.5585 14.0283C21.8157 14.2177 21.9246 14.5492 21.83 14.8543C21.3914 16.2685 20.638 17.5649 19.6264 18.6461C19.4092 18.8783 19.0691 18.9483 18.7778 18.8206L17.3715 18.2045C16.9691 18.0284 16.5071 18.0542 16.1268 18.274C15.7466 18.4937 15.4936 18.8812 15.4453 19.3177L15.2762 20.8444C15.2413 21.1592 15.0125 21.4182 14.7043 21.4915C13.2559 21.8361 11.7468 21.8361 10.2983 21.4915C9.99021 21.4182 9.76135 21.1592 9.72649 20.8444L9.55767 19.32C9.50808 18.8843 9.25465 18.498 8.87473 18.279C8.49481 18.06 8.03351 18.0343 7.63251 18.2094L6.22588 18.8256C5.93453 18.9533 5.59434 18.8833 5.37709 18.6509C4.36493 17.5685 3.6115 16.2705 3.17351 14.8548C3.07917 14.5499 3.18817 14.2186 3.44515 14.0293L4.68848 13.1133C5.04262 12.8531 5.25178 12.4399 5.25178 12.0005C5.25178 11.561 5.04262 11.1478 4.68802 10.8873L3.44547 9.97285C3.1881 9.78345 3.079 9.45178 3.17367 9.14658C3.61242 7.73215 4.36625 6.43564 5.37843 5.35462C5.5959 5.12236 5.93624 5.05259 6.22755 5.18056L7.62793 5.79572C8.03087 5.97256 8.49411 5.94585 8.87608 5.72269C9.2564 5.50209 9.50959 5.11422 9.55847 4.67764L9.72855 3.15196C9.76407 2.83335 9.99817 2.57254 10.3111 2.50294C11.0284 2.34342 11.7603 2.25865 12.5125 2.25ZM12.5 8.99995C10.8431 8.99995 9.5 10.3431 9.5 12C9.5 13.6568 10.8431 15 12.5 15C14.1569 15 15.5 13.6568 15.5 12C15.5 10.3431 14.1569 8.99995 12.5 8.99995Z" fill="#242424"/>
</svg>
