<svg width="25" height="24" viewBox="0 0 25 24" fill="none" xmlns="http://www.w3.org/2000/svg">
<path d="M12.5124 2.25C13.2464 2.25846 13.9775 2.34326 14.6939 2.50304C15.0067 2.57279 15.2406 2.83351 15.2761 3.15196L15.4463 4.67881C15.5233 5.37986 16.1152 5.91084 16.8209 5.91158C17.0105 5.91188 17.1982 5.87238 17.3734 5.79483L18.7741 5.17956C19.0654 5.05159 19.4057 5.12136 19.6232 5.35362C20.6354 6.43464 21.3892 7.73115 21.8279 9.14558C21.9225 9.45058 21.8137 9.78203 21.5566 9.9715L20.3151 10.8866C19.961 11.1468 19.7518 11.56 19.7518 11.9995C19.7518 12.4389 19.961 12.8521 20.3159 13.1129L21.5585 14.0283C21.8156 14.2177 21.9246 14.5492 21.8299 14.8543C21.3914 16.2685 20.638 17.5649 19.6264 18.6461C19.4091 18.8783 19.069 18.9483 18.7777 18.8206L17.3714 18.2045C16.9691 18.0284 16.507 18.0542 16.1268 18.274C15.7466 18.4937 15.4935 18.8812 15.4452 19.3177L15.2761 20.8444C15.2413 21.1592 15.0124 21.4182 14.7043 21.4915C13.2558 21.8361 11.7467 21.8361 10.2983 21.4915C9.99015 21.4182 9.76129 21.1592 9.72643 20.8444L9.5576 19.32C9.50802 18.8843 9.25459 18.498 8.87467 18.279C8.49475 18.06 8.03345 18.0343 7.63244 18.2094L6.22582 18.8256C5.93446 18.9533 5.59428 18.8833 5.37703 18.6509C4.36487 17.5685 3.61144 16.2705 3.17344 14.8548C3.07911 14.5499 3.18811 14.2186 3.44509 14.0293L4.68842 13.1133C5.04256 12.8531 5.25172 12.4399 5.25172 12.0005C5.25172 11.561 5.04256 11.1478 4.68796 10.8873L3.44541 9.97285C3.18804 9.78345 3.07894 9.45178 3.17361 9.14658C3.61236 7.73215 4.36619 6.43564 5.37837 5.35462C5.59584 5.12236 5.93618 5.05259 6.22749 5.18056L7.62786 5.79572C8.03081 5.97256 8.49404 5.94585 8.87601 5.72269C9.25633 5.50209 9.50953 5.11422 9.55841 4.67764L9.72849 3.15196C9.76401 2.83335 9.99811 2.57254 10.311 2.50294C11.0283 2.34342 11.7602 2.25865 12.5124 2.25ZM12.5126 3.7499C12.0586 3.75524 11.6058 3.79443 11.1581 3.86702L11.0491 4.84418C10.9473 5.75368 10.4203 6.56102 9.63066 7.01903C8.83622 7.48317 7.86761 7.53903 7.02483 7.16917L6.12654 6.77456C5.5546 7.46873 5.09938 8.25135 4.77877 9.09168L5.57656 9.67879C6.31537 10.2216 6.75172 11.0837 6.75172 12.0005C6.75172 12.9172 6.31537 13.7793 5.57734 14.3215L4.77829 14.9102C5.09863 15.752 5.55392 16.5361 6.12625 17.2316L7.03138 16.8351C7.86947 16.4692 8.83149 16.5227 9.62377 16.9794C10.4161 17.4361 10.9446 18.2417 11.0482 19.1526L11.1572 20.1365C12.0468 20.2878 12.9557 20.2878 13.8453 20.1365L13.9543 19.1527C14.0551 18.2421 14.583 17.4337 15.3762 16.9753C16.1695 16.5168 17.1334 16.463 17.973 16.8305L18.8775 17.2267C19.4493 16.5323 19.9044 15.7495 20.2249 14.909L19.427 14.3211C18.6882 13.7783 18.2518 12.9162 18.2518 11.9995C18.2518 11.0827 18.6882 10.2206 19.4261 9.67847L20.2229 9.09109C19.9023 8.25061 19.447 7.46784 18.875 6.77356L17.9785 7.16737C17.6132 7.32901 17.218 7.4122 16.8189 7.41158C15.3492 7.41004 14.1158 6.30355 13.9554 4.84383L13.8464 3.8667C13.4009 3.7942 12.9529 3.75512 12.5126 3.7499ZM12.4999 8.24995C14.571 8.24995 16.2499 9.92888 16.2499 12C16.2499 14.071 14.571 15.75 12.4999 15.75C10.4289 15.75 8.74994 14.071 8.74994 12C8.74994 9.92888 10.4289 8.24995 12.4999 8.24995ZM12.4999 9.74995C11.2573 9.74995 10.2499 10.7573 10.2499 12C10.2499 13.2426 11.2573 14.25 12.4999 14.25C13.7426 14.25 14.7499 13.2426 14.7499 12C14.7499 10.7573 13.7426 9.74995 12.4999 9.74995Z" fill="#242424"/>
</svg>
