<svg width="144" height="144" viewBox="0 0 144 144" fill="none" xmlns="http://www.w3.org/2000/svg">
<circle cx="72" cy="72" r="72" fill="#F0EFFF"/>
<path fill-rule="evenodd" clip-rule="evenodd" d="M39 44C39 39.0294 43.0294 35 48 35H70C74.9706 35 79 39.0294 79 44V47H96C100.971 47 105 51.0294 105 56V106C105 107.657 103.657 109 102 109H76H68H42C40.3431 109 39 107.657 39 106V44ZM73 44V47.0549C68.5 47.5524 65 51.3674 65 56V103H45V44C45 42.3431 46.3431 41 48 41H70C71.6569 41 73 42.3431 73 44ZM73 103H71V56C71 54.3431 72.3431 53 74 53H96C97.6569 53 99 54.3431 99 56V103H94V95C94 93.3431 92.6569 92 91 92H79C77.3431 92 76 93.3431 76 95V103H73ZM82 103H88V98H82V103ZM83 62.5C83 64.433 81.433 66 79.5 66C77.567 66 76 64.433 76 62.5C76 60.567 77.567 59 79.5 59C81.433 59 83 60.567 83 62.5ZM79.5 77C81.433 77 83 75.433 83 73.5C83 71.567 81.433 70 79.5 70C77.567 70 76 71.567 76 73.5C76 75.433 77.567 77 79.5 77ZM79.5 88C81.433 88 83 86.433 83 84.5C83 82.567 81.433 81 79.5 81C77.567 81 76 82.567 76 84.5C76 86.433 77.567 88 79.5 88ZM90.5 88C92.433 88 94 86.433 94 84.5C94 82.567 92.433 81 90.5 81C88.567 81 87 82.567 87 84.5C87 86.433 88.567 88 90.5 88ZM94 73.5C94 75.433 92.433 77 90.5 77C88.567 77 87 75.433 87 73.5C87 71.567 88.567 70 90.5 70C92.433 70 94 71.567 94 73.5ZM90.5 66C92.433 66 94 64.433 94 62.5C94 60.567 92.433 59 90.5 59C88.567 59 87 60.567 87 62.5C87 64.433 88.567 66 90.5 66ZM53.5 54C55.433 54 57 52.433 57 50.5C57 48.567 55.433 47 53.5 47C51.567 47 50 48.567 50 50.5C50 52.433 51.567 54 53.5 54ZM57 61.5C57 63.433 55.433 65 53.5 65C51.567 65 50 63.433 50 61.5C50 59.567 51.567 58 53.5 58C55.433 58 57 59.567 57 61.5ZM53.5 76C55.433 76 57 74.433 57 72.5C57 70.567 55.433 69 53.5 69C51.567 69 50 70.567 50 72.5C50 74.433 51.567 76 53.5 76ZM57 83.5C57 85.433 55.433 87 53.5 87C51.567 87 50 85.433 50 83.5C50 81.567 51.567 80 53.5 80C55.433 80 57 81.567 57 83.5ZM53.5 98C55.433 98 57 96.433 57 94.5C57 92.567 55.433 91 53.5 91C51.567 91 50 92.567 50 94.5C50 96.433 51.567 98 53.5 98Z" fill="#845FD0"/>
</svg>
